<svg xmlns="http://www.w3.org/2000/svg" xmlns:xlink="http://www.w3.org/1999/xlink" viewBox="0 0 64 64"><defs><style>.cls-1{fill:url(#radial-gradient);}.cls-2,.cls-4,.cls-5{fill:#fff;}.cls-2{opacity:0.4;}.cls-3{opacity:0.1;}.cls-5{opacity:0.6;}</style><radialGradient id="radial-gradient" cx="32" cy=".05" r="64" gradientUnits="userSpaceOnUse"><stop offset="0" stop-color="#fff" stop-opacity="0.15"/><stop offset=".5" stop-color="#fff" stop-opacity="0.1"/><stop offset="1" stop-color="#fff" stop-opacity="0"/></radialGradient><symbol id="ambient-lighting" viewBox="0 0 64 64"><path class="cls-1" d="M0 0h64v64h-64z"/></symbol></defs><title>todo</title><rect width="64" height="64" fill="#ED813E"/><g id="icons"><path class="cls-2" d="M43 48h-22a1 1 0 0 1-1-1v-30a1 1 0 0 1 1-1h17l6 6v25a1 1 0 0 1-1 1z"/><path class="cls-3" d="M43 48h-22a1 1 0 0 1-1-1v1a1 1 0 0 0 1 1h22a1 1 0 0 0 1-1v-1a1 1 0 0 1-1 1z"/><path class="cls-4" d="M25.625 33a.782.782 0 0 1-.554-.23l-1.841-1.841a.784.784 0 0 1 1.109-1.109l1.287 1.286 3.874-3.876a.784.784 0 1 1 1.109 1.109l-4.429 4.431a.782.782 0 0 1-.555.23zM25.625 43a.782.782 0 0 1-.554-.23l-1.841-1.841a.784.784 0 1 1 1.109-1.109l1.287 1.286 3.874-3.876a.784.784 0 1 1 1.109 1.109l-4.429 4.431a.782.782 0 0 1-.555.23z"/><path class="cls-5" d="M38 21v-5l6 6h-5a1 1 0 0 1-1-1z"/><path class="cls-3" d="M44 22h-5a1 1 0 0 0 1 1h4z"/><path class="cls-5" d="M34 28h7v1h-7zM34 31h7v1h-7zM34 38h7v1h-7zM34 41h7v1h-7z"/></g><use width="64" height="64" xlink:href="#ambient-lighting" id="lighting"/></svg>